PathFileType	4	(X/Y/Z)	/home/ubuntu/injury_detection/risk_analysis_package/data/KD_injured/trc_data/trials/KD_injured.trc
DataRate	CameraRate	NumFrames	NumMarkers	Units	OrigDataRate	OrigDataStartFrame	OrigNumFrames
30	30	4	105	m	30	24	98
Frame#	Time	BLTI			BRTI			C7			CHIN			CLAV			FBBT			FLTI			FRBT			FRTI			LAKI			LANK			LBAC			LBHD			LBWT			LELB			LELS			LELSO			LFBB			LFBT			LFFB			LFFT			LFHD			LFIN			LFLB			LFLT			LFMB			LFMT			LFPI			LFRM			LFWT			LHAP			LHBA			LHEB			LHEE			LHFR			LHME			LHPI			LHTH			LHTO			LKNE			LKNI			LMT5			LSCA			LSHN			LSHO			LTIA			LTIB			LTIC			LTOE			LTOP			LTOS			LUMB			LUMC			LWRA			LWRB			NOSE			RAKI			RANK			RBAC			RBHD			RBWT			RELB			RELS			RELSO			RFBB			RFBT			RFFB			RFFT			RFHD			RFIN			RFLB			RFLT			RFMB			RFMT			RFPI			RFRM			RFWT			RHAP			RHBA			RHEB			RHEE			RHFR			RHME			RHPI			RHTH			RHTO			RIBL			RIBR			RITL			RITR			RKNE			RKNI			RMT5			RSCA			RSHN			RSHO			RTIA			RTIB			RTIC			RTOE			RTOP			RTOS			RWRA			RWRB			THD		
		X1	Y1	Z1	X2	Y2	Z2	X3	Y3	Z3	X4	Y4	Z4	X5	Y5	Z5	X6	Y6	Z6	X7	Y7	Z7	X8	Y8	Z8	X9	Y9	Z9	X10	Y10	Z10	X11	Y11	Z11	X12	Y12	Z12	X13	Y13	Z13	X14	Y14	Z14	X15	Y15	Z15	X16	Y16	Z16	X17	Y17	Z17	X18	Y18	Z18	X19	Y19	Z19	X20	Y20	Z20	X21	Y21	Z21	X22	Y22	Z22	X23	Y23	Z23	X24	Y24	Z24	X25	Y25	Z25	X26	Y26	Z26	X27	Y27	Z27	X28	Y28	Z28	X29	Y29	Z29	X30	Y30	Z30	X31	Y31	Z31	X32	Y32	Z32	X33	Y33	Z33	X34	Y34	Z34	X35	Y35	Z35	X36	Y36	Z36	X37	Y37	Z37	X38	Y38	Z38	X39	Y39	Z39	X40	Y40	Z40	X41	Y41	Z41	X42	Y42	Z42	X43	Y43	Z43	X44	Y44	Z44	X45	Y45	Z45	X46	Y46	Z46	X47	Y47	Z47	X48	Y48	Z48	X49	Y49	Z49	X50	Y50	Z50	X51	Y51	Z51	X52	Y52	Z52	X53	Y53	Z53	X54	Y54	Z54	X55	Y55	Z55	X56	Y56	Z56	X57	Y57	Z57	X58	Y58	Z58	X59	Y59	Z59	X60	Y60	Z60	X61	Y61	Z61	X62	Y62	Z62	X63	Y63	Z63	X64	Y64	Z64	X65	Y65	Z65	X66	Y66	Z66	X67	Y67	Z67	X68	Y68	Z68	X69	Y69	Z69	X70	Y70	Z70	X71	Y71	Z71	X72	Y72	Z72	X73	Y73	Z73	X74	Y74	Z74	X75	Y75	Z75	X76	Y76	Z76	X77	Y77	Z77	X78	Y78	Z78	X79	Y79	Z79	X80	Y80	Z80	X81	Y81	Z81	X82	Y82	Z82	X83	Y83	Z83	X84	Y84	Z84	X85	Y85	Z85	X86	Y86	Z86	X87	Y87	Z87	X88	Y88	Z88	X89	Y89	Z89	X90	Y90	Z90	X91	Y91	Z91	X92	Y92	Z92	X93	Y93	Z93	X94	Y94	Z94	X95	Y95	Z95	X96	Y96	Z96	X97	Y97	Z97	X98	Y98	Z98	X99	Y99	Z99	X100	Y100	Z100	X101	Y101	Z101	X102	Y102	Z102	X103	Y103	Z103	X104	Y104	Z104	X105	Y105	Z105

25	0.8	0.132059	-0.334663	76.4256	0.17672	-0.303645	76.4031	0.0741489	0.204091	76.0459	0.123639	0.10199	75.9454	0.0800431	0.105925	75.9567	0.150545	-0.273915	76.4879	0.0559609	-0.258245	76.4143	0.181378	-0.252923	76.487	0.139104	-0.203943	76.3755	0.174808	-0.320956	76.5715	0.232614	-0.353095	76.5505	0.261467	0.267451	75.9378	0.0685349	-0.0626115	76.0247	0.109885	-0.0695765	75.7234	0.336619	0.347177	75.7899	0.286851	0.324772	75.7806	0.353689	0.317107	75.7827	0.0167367	-0.213448	76.149	0.0767051	-0.179216	76.0124	-0.0894588	-0.145654	76.2246	-0.0441597	-0.104784	76.0116	0.158677	-0.0495475	75.9315	0.473217	0.448374	75.5109	-0.00716166	-0.136802	76.2039	0.0765515	-0.0646446	76.0673	-0.0725647	-0.207617	76.1402	-0.0160331	-0.162313	75.9717	0.332286	-0.224104	76.5067	0.3834	0.410425	75.7028	0.170121	0.00140171	75.9084	0.263948	0.201777	75.8979	0.296419	0.303202	75.8743	0.258015	-0.357996	76.6295	0.22922	-0.389258	76.6191	0.306566	0.221176	75.8437	0.549373	0.442723	75.446	0.47915	0.499431	75.542	0.398048	0.452513	75.4981	0.335963	0.233614	75.9206	-0.00848061	-0.190848	76.2467	-0.0869945	-0.226406	76.2614	0.299252	-0.198108	76.5144	0.169696	0.217394	76.0559	0.0785834	-0.255488	76.2959	0.257542	0.140169	76.0638	-0.0154636	-0.200466	76.3215	0.106354	-0.242492	76.429	0.163141	-0.287883	76.5197	0.296668	-0.149699	76.4958	0.316181	-0.266705	76.5252	0.260953	-0.191067	76.5546	0.203435	0.0917422	75.6933	0.182141	0.0614413	75.6908	0.383477	0.468437	75.5589	0.423349	0.490309	75.5926	0.135826	0.0231988	75.8802	0.259488	-0.265575	76.5237	0.262661	-0.326385	76.5529	0.118013	0.326415	75.863	-0.00485195	-0.0361981	75.9715	0.059385	-0.0342271	75.702	-0.0339407	-0.116402	75.7252	0.00549736	-0.0717536	75.7283	-0.0581064	-0.0933214	75.7449	-0.0289455	-0.174858	76.1058	-0.0663443	-0.127122	75.9526	0.0452234	-0.100787	76.2085	0.0577353	-0.0607949	76.0061	0.0519809	-0.00126766	75.864	0.150118	-0.329002	75.951	-0.031162	-0.121919	76.1704	-0.0750399	0.00483562	76.0273	0.0435194	-0.167548	76.101	0.0289824	-0.121137	75.957	0.308119	-0.199077	76.6994	0.00197567	-0.193748	75.7924	-0.000217795	0.111524	75.8323	0.00113899	0.108846	75.7979	-0.0465608	0.0317162	75.739	0.350361	-0.303926	76.54	0.32299	-0.329008	76.5179	-0.00238311	0.000764072	75.8067	0.205997	-0.39434	75.9918	0.110969	-0.356997	75.9147	0.167451	-0.261512	75.9087	-0.0682317	0.0493819	75.8096	0.219538	0.0316296	75.8708	0.0535462	0.174249	75.7105	0.160634	0.0863022	75.9757	0.0389195	0.128717	75.9081	-0.00894751	-0.172386	76.2377	0.071014	-0.164545	76.1986	0.285866	-0.188165	76.671	0.0112604	0.27749	75.9478	0.0845473	-0.262902	76.3848	-0.049963	0.193933	75.9136	0.0538953	-0.159866	76.2923	0.121153	-0.2039	76.3912	0.211792	-0.255104	76.5143	0.26274	-0.145599	76.6672	0.322224	-0.248996	76.6851	0.292381	-0.178027	76.6254	0.0963648	-0.249201	75.9073	0.0605828	-0.289322	75.8957	0.0652958	-0.132899	75.891
26	0.833333	0.118805	-0.33659	77.3162	0.144054	-0.30818	77.2985	0.0559276	0.196113	76.9356	0.106707	0.0957657	76.8334	0.064549	0.0995755	76.8448	0.137008	-0.275065	77.3783	0.0428495	-0.260653	77.3038	0.147142	-0.257325	77.3823	0.110084	-0.207466	77.2693	0.161072	-0.320855	77.4625	0.217928	-0.353521	77.4415	0.247769	0.259732	76.8365	0.0504994	-0.0701447	76.9091	0.102414	-0.0731057	76.6132	0.330234	0.338593	76.6908	0.280644	0.31674	76.6795	0.34732	0.308532	76.6841	0.00453249	-0.218011	77.0376	0.0650833	-0.183428	76.9007	-0.101571	-0.149863	77.1127	-0.0554392	-0.108889	76.8998	0.142104	-0.0555043	76.8175	0.478219	0.441041	76.4181	-0.0192071	-0.141438	77.0924	0.0649939	-0.0687429	76.9562	-0.0846131	-0.211709	77.0285	-0.0274878	-0.166287	76.8597	0.321771	-0.229171	77.3981	0.381085	0.402198	76.6063	0.158954	-0.00325884	76.7997	0.251432	0.193914	76.7954	0.285976	0.294904	76.7734	0.243153	-0.360454	77.5202	0.213415	-0.390462	77.5097	0.296551	0.212954	76.743	0.556206	0.434687	76.3554	0.484014	0.491618	76.4499	0.403414	0.446381	76.4031	0.322778	0.224962	76.8213	-0.0208107	-0.195261	77.1353	-0.0995034	-0.230419	77.1497	0.290092	-0.201735	77.4061	0.150618	0.208436	76.9497	0.0660846	-0.259073	77.1855	0.237308	0.130771	76.9599	-0.0281665	-0.204082	77.2101	0.0931722	-0.244604	77.3186	0.149553	-0.28823	77.4104	0.289531	-0.153381	77.3871	0.304238	-0.270447	77.417	0.252396	-0.193068	77.4468	0.197121	0.0887007	76.5864	0.175733	0.0583948	76.5829	0.387255	0.46187	76.4634	0.42636	0.48284	76.4987	0.119907	0.0180316	76.7671	0.223498	-0.272159	77.4217	0.224577	-0.332785	77.4512	0.108347	0.321689	76.7567	-0.0220228	-0.043038	76.8553	0.0525064	-0.0375887	76.5909	-0.043015	-0.116528	76.6028	-0.00392094	-0.0718763	76.6075	-0.0674549	-0.0942147	76.6228	-0.0487004	-0.175585	76.9942	-0.081115	-0.128803	76.8395	0.0247097	-0.102286	77.0982	0.0428026	-0.0649899	76.8955	0.036255	-0.00620815	76.7493	0.139748	-0.334952	76.8247	-0.0512945	-0.122007	77.0583	-0.0888876	0.00385752	76.9129	0.0239696	-0.170039	76.9912	0.0139818	-0.125179	76.8461	0.264406	-0.206392	77.5996	-0.00688428	-0.195644	76.6677	-0.00947829	0.107981	76.7203	-0.00880245	0.106394	76.6815	-0.0560507	0.0309128	76.6202	0.313163	-0.311329	77.442	0.28656	-0.336267	77.4187	-0.0126311	-0.00171167	76.6876	0.194342	-0.401387	76.8654	0.10139	-0.361941	76.7869	0.158238	-0.266545	76.7844	-0.0784346	0.046851	76.691	0.209146	0.0256636	76.7635	0.0470765	0.172053	76.6011	0.14418	0.0791277	76.8666	0.0255567	0.123723	76.7949	-0.0321459	-0.172188	77.1264	0.0490298	-0.166667	77.09	0.243248	-0.195156	77.5705	-0.00260669	0.271749	76.8363	0.0536467	-0.264791	77.277	-0.0628362	0.189075	76.7981	0.0291209	-0.161177	77.1832	0.0916386	-0.206787	77.2845	0.176458	-0.260508	77.4105	0.220113	-0.152622	77.5665	0.27916	-0.256095	77.5856	0.25203	-0.184529	77.5252	0.0871798	-0.254076	76.7816	0.0515977	-0.29374	76.7682	0.0494844	-0.138264	76.7743
27	0.866667	0.100321	-0.34194	77.6284	0.128397	-0.308589	77.6134	0.0477068	0.1915	77.2515	0.0972778	0.0933174	77.1466	0.0565477	0.0970036	77.1586	0.118521	-0.280912	77.6913	0.0257353	-0.265008	77.6153	0.130863	-0.258453	77.6975	0.0957718	-0.207283	77.5846	0.140692	-0.32734	77.7757	0.196762	-0.360789	77.7547	0.24256	0.253993	77.158	0.0387912	-0.0739138	77.2175	0.0969133	-0.0724493	76.9269	0.330982	0.331282	77.0131	0.28094	0.310906	77.0009	0.347175	0.300702	77.0067	-0.00795928	-0.219964	77.3487	0.0550392	-0.184834	77.213	-0.114342	-0.151284	77.4229	-0.0646772	-0.109158	77.2111	0.130341	-0.0579307	77.126	0.485332	0.428548	76.7418	-0.031611	-0.143606	77.4038	0.0553887	-0.070353	77.2696	-0.0967651	-0.212589	77.3384	-0.0366872	-0.166449	77.1709	0.304535	-0.239144	77.7144	0.384745	0.393093	76.9289	0.152276	-0.00484572	77.1145	0.245872	0.188318	77.1153	0.283704	0.288321	77.0948	0.22102	-0.370466	77.8333	0.190468	-0.399176	77.822	0.292432	0.206333	77.064	0.563954	0.419682	76.6801	0.492258	0.478902	76.7736	0.410898	0.436125	76.7256	0.317546	0.21712	77.1429	-0.0344934	-0.197837	77.4463	-0.113819	-0.232032	77.4592	0.273799	-0.210879	77.7232	0.142029	0.202031	77.2679	0.0507484	-0.263185	77.4974	0.226994	0.123166	77.2781	-0.0430836	-0.207055	77.5209	0.0760525	-0.249698	77.6311	0.130401	-0.294123	77.7237	0.274863	-0.162139	77.7052	0.285717	-0.280127	77.7326	0.23633	-0.201875	77.764	0.193283	0.0891844	76.9028	0.171564	0.0590967	76.8985	0.394339	0.452144	76.7858	0.433658	0.471976	76.8215	0.109062	0.0173873	77.0778	0.20661	-0.274329	77.7378	0.206824	-0.335254	77.7667	0.105741	0.320424	77.0765	-0.0333814	-0.0442089	77.1646	0.0475143	-0.0362911	76.9044	-0.0506191	-0.112096	76.9088	-0.010941	-0.0678702	76.9142	-0.0744807	-0.0899344	76.9297	-0.0591884	-0.173105	77.3076	-0.0893892	-0.12706	77.1521	0.0135976	-0.0999727	77.4125	0.0342712	-0.0641128	77.2094	0.0249574	-0.00504546	77.0598	0.13352	-0.337144	77.1227	-0.0621077	-0.119275	77.3715	-0.0969511	0.00590408	77.2248	0.0134962	-0.168129	77.3057	0.00558404	-0.124425	77.1598	0.243126	-0.211758	77.9179	-0.01445	-0.192901	76.9717	-0.0145823	0.1087	77.0345	-0.0136105	0.108537	76.9929	-0.0620857	0.0349948	76.9299	0.295755	-0.313997	77.7597	0.26967	-0.338521	77.7354	-0.0183415	0.000414178	76.9961	0.18823	-0.405191	77.1605	0.0940925	-0.362736	77.0851	0.15184	-0.267917	77.0839	-0.0838326	0.0494075	77.0011	0.203068	0.022486	77.0788	0.0440761	0.174482	76.9177	0.135328	0.0747132	77.1816	0.0190548	0.122845	77.1084	-0.0442031	-0.169348	77.44	0.0373948	-0.164565	77.4049	0.22269	-0.199937	77.8885	-0.00808121	0.270102	77.1527	0.0387051	-0.264033	77.5911	-0.0681667	0.18875	77.1112	0.0164164	-0.159415	77.4978	0.0771664	-0.20651	77.5995	0.159763	-0.262238	77.726	0.19944	-0.157358	77.8849	0.25841	-0.261045	77.9032	0.232797	-0.188344	77.8434	0.0808521	-0.254584	77.0828	0.0445951	-0.293595	77.0693	0.0364569	-0.138043	77.0808
28	0.9	0.0645373	-0.361699	77.9752	0.123714	-0.311339	77.9613	0.0387408	0.18158	77.6063	0.0896647	0.0847251	77.5011	0.0476321	0.0888848	77.5114	0.0829856	-0.302529	78.0398	-0.006566	-0.281693	77.9611	0.126608	-0.262986	78.0461	0.0893914	-0.209868	77.935	0.100369	-0.351283	78.124	0.155861	-0.386534	78.104	0.234944	0.244542	77.5155	0.0255716	-0.0830305	77.5653	0.0864878	-0.075783	77.2778	0.329134	0.318367	77.3701	0.278608	0.299681	77.3575	0.344259	0.287233	77.3641	-0.0292849	-0.228877	77.6944	0.0389681	-0.192201	77.562	-0.136804	-0.159927	77.7663	-0.0797821	-0.114829	77.5576	0.119403	-0.066625	77.4763	0.490004	0.4083	77.0999	-0.0534879	-0.15326	77.7502	0.0390649	-0.0784629	77.6206	-0.117471	-0.219838	77.6814	-0.0510182	-0.171713	77.5177	0.269008	-0.267179	78.0701	0.38597	0.377607	77.2859	0.142768	-0.0114896	77.4663	0.238267	0.178891	77.4721	0.279363	0.277426	77.4516	0.177173	-0.398698	78.1833	0.145964	-0.426018	78.1703	0.285714	0.195022	77.4213	0.569212	0.396391	77.0395	0.498123	0.458543	77.1315	0.416115	0.418132	77.0826	0.310305	0.205377	77.5005	-0.0587683	-0.2089	77.7915	-0.139366	-0.241075	77.8012	0.238765	-0.238296	78.0787	0.13223	0.191438	77.6233	0.0224114	-0.278805	77.844	0.216101	0.112711	77.6335	-0.0700388	-0.219583	77.8655	0.0437237	-0.268652	77.9788	0.0932135	-0.316741	78.0722	0.241637	-0.189133	78.0623	0.248399	-0.308378	78.0865	0.200399	-0.229357	78.1185	0.184522	0.0855243	77.256	0.162457	0.0557059	77.2511	0.399192	0.435092	77.1424	0.438658	0.453888	77.1785	0.101034	0.0107198	77.4302	0.203271	-0.278741	78.0849	0.204652	-0.340027	78.1129	0.0991614	0.313702	77.4344	-0.044839	-0.0498278	77.512	0.0374725	-0.0386643	77.2559	-0.0687141	-0.11474	77.2591	-0.0269464	-0.0722552	77.2648	-0.0915792	-0.0915177	77.2799	-0.0679312	-0.174578	77.66	-0.0983878	-0.129846	77.5039	0.00362462	-0.100108	77.7657	0.0243562	-0.0651793	77.5614	0.0168882	-0.00891371	77.4096	0.10496	-0.348742	77.4717	-0.0716993	-0.120703	77.7238	-0.10755	0.0030995	77.5761	0.00463822	-0.168483	77.6585	-0.00340707	-0.12628	77.5119	0.236517	-0.218259	78.2659	-0.0367056	-0.197437	77.3218	-0.0229398	0.105235	77.3878	-0.0226669	0.10389	77.3452	-0.0737109	0.0329371	77.2811	0.293314	-0.316829	78.1069	0.267972	-0.34157	78.0819	-0.031812	-0.00407945	77.3472	0.157319	-0.419084	77.5085	0.0644252	-0.372454	77.434	0.125568	-0.279775	77.4336	-0.0951374	0.0475286	77.3523	0.195442	0.0141283	77.4309	0.0367388	0.17148	77.2739	0.125994	0.0653082	77.5346	0.0106519	0.116095	77.4614	-0.0529785	-0.170567	77.7926	0.0284243	-0.164601	77.7576	0.216244	-0.206567	78.2364	-0.0151964	0.262998	77.5085	0.0331139	-0.267411	77.9412	-0.0753657	0.183463	77.4639	0.0081528	-0.160991	77.8503	0.0710108	-0.209619	77.9502	0.15592	-0.267015	78.0739	0.192129	-0.164374	78.233	0.253164	-0.26702	78.2509	0.226625	-0.194352	78.1917	0.0551669	-0.263784	77.433	0.0173305	-0.301292	77.4194	0.0245194	-0.142872	77.4265
